# File created by Blade
# Date/Time:  Thu Jan 22 16:52:56 2015
# Frame Rate: 120.000 fps
#------------------------------------------------------
:FULLY-SPECIFIED
:DEGREES
1195
root 2.800266 3.826382 -0.413586 -35.656995 -4.278724 16.841605
RightUpLeg -54.813615 -24.177572 -34.618448
RightLeg 6.048975 -0.000000 -0.000000
RightFoot -3.020556 -20.484103 30.536372
RightToeBase -21.748264 -0.000000 0.000000
LeftUpLeg -37.679470 35.878436 14.829631
LeftLeg -2.230539 -0.000000 0.000000
LeftFoot 12.579818 25.285327 -33.067040
LeftToeBase 0.845881 -0.000000 -0.000000
Spine 71.373525 -23.564642 6.405994
RightShoulder 17.321433 52.749607 -31.164575
RightArm 15.385742 17.637026 40.277137
RightForeArm -30.525510 -0.000000 39.811519
RightHand 0.989775 -0.000000 -8.517543
RightHandThumb1 -24.326973 -0.000000 -32.862282
LeftShoulder -9.905968 2.449067 54.705366
LeftArm 106.984244 -42.049522 -41.970165
LeftForeArm 64.002748 0.000000 29.099585
LeftHand -8.045363 0.000000 -4.170085
LeftHandThumb1 -26.253704 0.000000 33.147579
Head 56.713560 -18.140297 20.871640
1196
root 2.800539 3.827320 -0.413957 -35.648916 -4.279964 16.829631
RightUpLeg -54.800698 -24.171944 -34.623587
RightLeg 6.037351 -0.000000 -0.000000
RightFoot -3.027342 -20.453925 30.549349
RightToeBase -21.696989 -0.000000 0.000000
LeftUpLeg -37.693474 35.863738 14.837080
LeftLeg -2.223025 -0.000000 0.000000
LeftFoot 12.605537 25.257784 -33.063531
LeftToeBase 0.850366 -0.000000 -0.000000
Spine 71.396516 -23.583589 6.396612
RightShoulder 17.273840 52.731793 -31.204722
RightArm 15.463701 17.663740 40.331592
RightForeArm -30.531326 0.000000 39.803044
RightHand 1.042865 -0.000000 -8.604695
RightHandThumb1 -24.326973 -0.000000 -32.862282
LeftShoulder -9.933541 2.435592 54.697675
LeftArm 106.943937 -42.035116 -41.920703
LeftForeArm 63.985657 -0.000000 29.090355
LeftHand -8.035142 -0.000000 -4.159525
LeftHandThumb1 -26.253704 0.000000 33.147579
Head 56.734194 -18.129760 20.932418
1197
root 2.801289 3.827232 -0.413841 -35.640928 -4.275093 16.820044
RightUpLeg -54.785173 -24.170635 -34.638425
RightLeg 6.016683 -0.000000 -0.000000
RightFoot -2.998252 -20.449513 30.544149
RightToeBase -21.809124 -0.000000 0.000000
LeftUpLeg -37.713722 35.847029 14.833228
LeftLeg -2.217894 -0.000000 0.000000
LeftFoot 12.630041 25.236187 -33.054251
LeftToeBase 0.846539 -0.000000 -0.000000
Spine 71.404059 -23.602711 6.384443
RightShoulder 17.243183 52.674585 -31.227203
RightArm 15.557761 17.706304 40.371883
RightForeArm -30.535172 0.000000 39.793352
RightHand 1.024931 -0.000000 -8.602196
RightHandThumb1 -24.326973 -0.000000 -32.862282
LeftShoulder -9.941603 2.401234 54.717505
LeftArm 106.892595 -41.983420 -41.915738
LeftForeArm 63.975031 -0.000000 29.102351
LeftHand -8.002956 -0.000000 -4.160881
LeftHandThumb1 -26.253704 0.000000 33.147579
Head 56.772085 -18.137687 20.928368
1198
root 2.801846 3.827663 -0.414819 -35.629110 -4.277523 16.810784
RightUpLeg -54.777522 -24.171483 -34.634335
RightLeg 5.993098 -0.000000 -0.000000
RightFoot -2.978258 -20.434333 30.551922
RightToeBase -21.894225 -0.000000 0.000000
LeftUpLeg -37.735268 35.839430 14.828283
LeftLeg -2.218750 -0.000000 0.000000
LeftFoot 12.661107 25.223246 -33.044327
LeftToeBase 0.821179 -0.000000 -0.000000
Spine 71.405303 -23.611682 6.373672
RightShoulder 17.247384 52.608641 -31.214993
RightArm 15.640521 17.740497 40.377293
RightForeArm -30.515202 -0.000000 39.772922
RightHand 1.006976 -0.000000 -8.594971
RightHandThumb1 -24.326973 -0.000000 -32.862282
LeftShoulder -9.921008 2.383473 54.731958
LeftArm 106.849323 -41.966352 -41.905981
LeftForeArm 63.990204 -0.000000 29.096917
LeftHand -8.001428 -0.000000 -4.175752
LeftHandThumb1 -26.253704 0.000000 33.147579
Head 56.783762 -18.105600 20.993760
1199
root 2.802532 3.828923 -0.415010 -35.622078 -4.273211 16.800139
RightUpLeg -54.746207 -24.148405 -34.677159
RightLeg 5.984647 -0.000000 -0.000000
RightFoot -3.013589 -20.468358 30.591085
RightToeBase -21.852866 -0.000000 0.000000
LeftUpLeg -37.745627 35.821650 14.826420
LeftLeg -2.221659 -0.000000 0.000000
LeftFoot 12.688004 25.196391 -33.029330
LeftToeBase 0.847737 -0.000000 -0.000000
Spine 71.421423 -23.628129 6.361989
RightShoulder 17.229704 52.554033 -31.230584
RightArm 15.703933 17.773928 40.382380
RightForeArm -30.498137 -0.000000 39.772913
RightHand 1.009349 0.000000 -8.593825
RightHandThumb1 -24.326973 -0.000000 -32.862282
LeftShoulder -9.925996 2.356830 54.745761
LeftArm 106.835654 -41.932829 -41.924472
LeftForeArm 63.981518 -0.000000 29.094373
LeftHand -7.998368 0.000000 -4.217597
LeftHandThumb1 -26.253704 0.000000 33.147579
Head 56.805340 -18.122790 21.006002
1200
root 2.802586 3.830137 -0.414849 -35.622291 -4.272356 16.794745
RightUpLeg -54.746118 -24.167156 -34.647997
RightLeg 5.968889 -0.000000 -0.000000
RightFoot -2.969055 -20.437185 30.513791
RightToeBase -21.847788 -0.000000 0.000000
LeftUpLeg -37.733351 35.802788 14.840046
LeftLeg -2.233591 -0.000000 0.000000
LeftFoot 12.714498 25.177116 -33.024045
LeftToeBase 0.814124 -0.000000 -0.000000
Spine 71.446529 -23.638395 6.347091
RightShoulder 17.180890 52.502108 -31.270920
RightArm 15.781028 17.827262 40.424575
RightForeArm -30.534929 -0.000000 39.783683
RightHand 0.957092 0.000000 -8.572357
RightHandThumb1 -24.326973 -0.000000 -32.862282
LeftShoulder -9.938672 2.334502 54.752597
LeftArm 106.851033 -41.895118 -41.976002
LeftForeArm 63.988120 -0.000000 29.097025
LeftHand -7.964458 -0.000000 -4.251372
LeftHandThumb1 -26.253704 0.000000 33.147579
Head 56.830827 -18.135193 21.005263
1201
root 2.802740 3.830411 -0.413932 -35.614188 -4.270822 16.788746
RightUpLeg -54.736120 -24.162267 -34.667982
RightLeg 5.979243 -0.000000 -0.000000
RightFoot -3.008144 -20.446133 30.568140
RightToeBase -21.778893 -0.000000 0.000000
LeftUpLeg -37.734536 35.789253 14.847505
LeftLeg -2.240890 -0.000000 0.000000
LeftFoot 12.731991 25.159554 -33.030057
LeftToeBase 0.808412 -0.000000 -0.000000
Spine 71.455222 -23.648916 6.334280
RightShoulder 17.171803 52.472533 -31.269531
RightArm 15.829487 17.841257 40.431742
RightForeArm -30.492294 0.000000 39.784483
RightHand 0.933342 -0.000000 -8.602511
RightHandThumb1 -24.326973 -0.000000 -32.862282
LeftShoulder -9.952679 2.312742 54.751732
LeftArm 106.865411 -41.854257 -42.008315
LeftForeArm 64.007615 0.000000 29.090682
LeftHand -7.954952 0.000000 -4.254629
LeftHandThumb1 -26.253704 0.000000 33.147579
Head 56.867641 -18.152296 21.021884
1202
root 2.803042 3.830941 -0.412893 -35.612853 -4.269280 16.789545
RightUpLeg -54.739457 -24.171133 -34.658729
RightLeg 5.970924 -0.000000 -0.000000
RightFoot -2.968040 -20.444041 30.509151
RightToeBase -21.880715 -0.000000 0.000000
LeftUpLeg -37.737623 35.792318 14.839692
LeftLeg -2.244527 -0.000000 0.000000
LeftFoot 12.748748 25.150986 -33.024117
LeftToeBase 0.797730 -0.000000 -0.000000
Spine 71.468529 -23.652780 6.322237
RightShoulder 17.142821 52.430130 -31.294006
RightArm 15.871239 17.874257 40.447608
RightForeArm -30.480536 -0.000000 39.801298
RightHand 0.930187 -0.000000 -8.604684
RightHandThumb1 -24.326973 -0.000000 -32.862282
LeftShoulder -9.965979 2.287856 54.747387
LeftArm 106.889001 -41.819890 -42.034906
LeftForeArm 64.023224 -0.000000 29.074547
LeftHand -7.964198 -0.000000 -4.246650
LeftHandThumb1 -26.253704 0.000000 33.147579
Head 56.870386 -18.140579 21.112895
1203
root 2.803411 3.829628 -0.412350 -35.613794 -4.267041 16.789858
RightUpLeg -54.745689 -24.172967 -34.662521
RightLeg 5.983733 -0.000000 -0.000000
RightFoot -2.954099 -20.442201 30.524218
RightToeBase -21.945380 -0.000000 0.000000
LeftUpLeg -37.726437 35.774567 14.853438
LeftLeg -2.252220 -0.000000 0.000000
LeftFoot 12.738150 25.174141 -33.044251
LeftToeBase 0.786507 -0.000000 -0.000000
Spine 71.476384 -23.652736 6.312386
RightShoulder 17.113954 52.352675 -31.320742
RightArm 15.938039 17.936005 40.460452
RightForeArm -30.458938 0.000000 39.799407
RightHand 0.865584 -0.000000 -8.603288
RightHandThumb1 -24.326973 -0.000000 -32.862282
LeftShoulder -9.932119 2.709756 54.588420
LeftArm 107.269155 -42.238916 -42.144923
LeftForeArm 63.928068 0.000000 29.003765
LeftHand -7.906146 -0.000000 -4.268943
LeftHandThumb1 -26.253704 0.000000 33.147579
Head 56.911954 -18.167985 21.049145
